<?xml version="1.0" encoding="us-ascii" standalone="no"?><svg xmlns="http://www.w3.org/2000/svg" xmlns:xlink="http://www.w3.org/1999/xlink" contentStyleType="text/css" height="663px" preserveAspectRatio="none" style="width:958px;height:663px;background:#FFFFFF;" version="1.1" viewBox="0 0 958 663" width="958px" zoomAndPan="magnify"><defs/><g><!--class MedioTransporte--><g id="elem_MedioTransporte"><rect codeLine="2" fill="#F1F1F1" height="48" id="MedioTransporte" rx="2.5" ry="2.5" style="stroke:#181818;stroke-width:0.5;" width="148" x="235.5" y="392"/><ellipse cx="250.5" cy="408" fill="#EB937F" rx="11" ry="11" style="stroke:#181818;stroke-width:1.0;"/><path d="M246.8594,414.5 L246.8594,402.3594 L254.5156,402.3594 L254.5156,404.4844 L249.2344,404.4844 L249.2344,407.1406 L254.25,407.1406 L254.25,409.2656 L249.2344,409.2656 L249.2344,412.375 L254.5156,412.375 L254.5156,414.5 L246.8594,414.5 Z " fill="#000000"/><text fill="#000000" font-family="sans-serif" font-size="14" lengthAdjust="spacing" textLength="116" x="264.5" y="413.432">MedioTransporte</text><line style="stroke:#181818;stroke-width:0.5;" x1="236.5" x2="382.5" y1="424" y2="424"/><line style="stroke:#181818;stroke-width:0.5;" x1="236.5" x2="382.5" y1="432" y2="432"/></g><!--class PyMundoDemo--><g id="elem_PyMundoDemo"><rect fill="#F1F1F1" height="48" id="PyMundoDemo" rx="2.5" ry="2.5" style="stroke:#181818;stroke-width:0.5;" width="134" x="530.5" y="7"/><ellipse cx="545.5" cy="23" fill="#ADD1B2" rx="11" ry="11" style="stroke:#181818;stroke-width:1.0;"/><path d="M544.9688,29.9219 Q543.2188,29.9219 542.0781,29.1875 Q540.9531,28.4375 540.3906,27.0938 Q539.8438,25.7344 539.8438,23.9375 Q539.8438,21.9063 540.5,20.4531 Q541.1563,19 542.4375,18.2188 Q543.7188,17.4375 545.5938,17.4375 Q546.4844,17.4375 547.1563,17.625 Q547.8281,17.7969 548.5156,18.1406 L547.7031,20.1563 Q547.0781,19.8438 546.5313,19.7188 Q546,19.5938 545.5156,19.5938 Q544.3438,19.5938 543.6406,20.125 Q542.9375,20.6563 542.6406,21.6094 Q542.3438,22.5625 542.3438,23.8281 Q542.3438,25.8438 543.0625,26.8125 Q543.7813,27.7656 545.375,27.7656 Q545.9688,27.7656 546.5938,27.6094 Q547.2188,27.4531 548.0469,27.0781 L548.0469,29.2969 Q547.3125,29.6094 546.5156,29.7656 Q545.7344,29.9219 544.9688,29.9219 Z " fill="#000000"/><text fill="#000000" font-family="sans-serif" font-size="14" lengthAdjust="spacing" textLength="102" x="559.5" y="28.432">PyMundoDemo</text><line style="stroke:#181818;stroke-width:0.5;" x1="531.5" x2="663.5" y1="39" y2="39"/><line style="stroke:#181818;stroke-width:0.5;" x1="531.5" x2="663.5" y1="47" y2="47"/></g><!--class Mundo--><g id="elem_Mundo"><rect fill="#F1F1F1" height="48" id="Mundo" rx="2.5" ry="2.5" style="stroke:#181818;stroke-width:0.5;" width="80" x="498.5" y="115"/><ellipse cx="513.5" cy="131" fill="#ADD1B2" rx="11" ry="11" style="stroke:#181818;stroke-width:1.0;"/><path d="M512.9688,137.9219 Q511.2188,137.9219 510.0781,137.1875 Q508.9531,136.4375 508.3906,135.0938 Q507.8438,133.7344 507.8438,131.9375 Q507.8438,129.9063 508.5,128.4531 Q509.1563,127 510.4375,126.2188 Q511.7188,125.4375 513.5938,125.4375 Q514.4844,125.4375 515.1563,125.625 Q515.8281,125.7969 516.5156,126.1406 L515.7031,128.1563 Q515.0781,127.8438 514.5313,127.7188 Q514,127.5938 513.5156,127.5938 Q512.3438,127.5938 511.6406,128.125 Q510.9375,128.6563 510.6406,129.6094 Q510.3438,130.5625 510.3438,131.8281 Q510.3438,133.8438 511.0625,134.8125 Q511.7813,135.7656 513.375,135.7656 Q513.9688,135.7656 514.5938,135.6094 Q515.2188,135.4531 516.0469,135.0781 L516.0469,137.2969 Q515.3125,137.6094 514.5156,137.7656 Q513.7344,137.9219 512.9688,137.9219 Z " fill="#000000"/><text fill="#000000" font-family="sans-serif" font-size="14" lengthAdjust="spacing" textLength="48" x="527.5" y="136.432">Mundo</text><line style="stroke:#181818;stroke-width:0.5;" x1="499.5" x2="577.5" y1="147" y2="147"/><line style="stroke:#181818;stroke-width:0.5;" x1="499.5" x2="577.5" y1="155" y2="155"/></g><!--class Console--><g id="elem_Console"><rect fill="#F1F1F1" height="48" id="Console" rx="2.5" ry="2.5" style="stroke:#181818;stroke-width:0.5;" width="85" x="614" y="115"/><ellipse cx="629" cy="131" fill="#ADD1B2" rx="11" ry="11" style="stroke:#181818;stroke-width:1.0;"/><path d="M628.4688,137.9219 Q626.7188,137.9219 625.5781,137.1875 Q624.4531,136.4375 623.8906,135.0938 Q623.3438,133.7344 623.3438,131.9375 Q623.3438,129.9063 624,128.4531 Q624.6563,127 625.9375,126.2188 Q627.2188,125.4375 629.0938,125.4375 Q629.9844,125.4375 630.6563,125.625 Q631.3281,125.7969 632.0156,126.1406 L631.2031,128.1563 Q630.5781,127.8438 630.0313,127.7188 Q629.5,127.5938 629.0156,127.5938 Q627.8438,127.5938 627.1406,128.125 Q626.4375,128.6563 626.1406,129.6094 Q625.8438,130.5625 625.8438,131.8281 Q625.8438,133.8438 626.5625,134.8125 Q627.2813,135.7656 628.875,135.7656 Q629.4688,135.7656 630.0938,135.6094 Q630.7188,135.4531 631.5469,135.0781 L631.5469,137.2969 Q630.8125,137.6094 630.0156,137.7656 Q629.2344,137.9219 628.4688,137.9219 Z " fill="#000000"/><text fill="#000000" font-family="sans-serif" font-size="14" lengthAdjust="spacing" textLength="53" x="643" y="136.432">Console</text><line style="stroke:#181818;stroke-width:0.5;" x1="615" x2="698" y1="147" y2="147"/><line style="stroke:#181818;stroke-width:0.5;" x1="615" x2="698" y1="155" y2="155"/></g><!--class Terreno--><g id="elem_Terreno"><rect codeLine="12" fill="#F1F1F1" height="48" id="Terreno" rx="2.5" ry="2.5" style="stroke:#181818;stroke-width:0.5;" width="81" x="540" y="284"/><ellipse cx="555" cy="300" fill="#A9DCDF" rx="11" ry="11" style="stroke:#181818;stroke-width:1.0;"/><path d="M550.1719,305.75 L553.5156,293.5625 L556.6563,293.5625 L560.0313,305.75 L557.5625,305.75 L556.8281,302.7344 L553.3125,302.7344 L552.5625,305.75 L550.1719,305.75 Z M554.5781,297.7031 L553.8281,300.7031 L556.3438,300.7031 L555.625,297.7031 Q555.4844,297.125 555.3594,296.5781 Q555.2344,296.0156 555.0938,295.4375 Q554.9844,296.0156 554.8438,296.5781 Q554.7031,297.125 554.5781,297.7031 Z " fill="#000000"/><text fill="#000000" font-family="sans-serif" font-size="14" font-style="italic" lengthAdjust="spacing" textLength="49" x="569" y="305.432">Terreno</text><line style="stroke:#181818;stroke-width:0.5;" x1="541" x2="620" y1="316" y2="316"/><line style="stroke:#181818;stroke-width:0.5;" x1="541" x2="620" y1="324" y2="324"/></g><!--class Jugador--><g id="elem_Jugador"><rect fill="#F1F1F1" height="48" id="Jugador" rx="2.5" ry="2.5" style="stroke:#181818;stroke-width:0.5;" width="85" x="346" y="115"/><ellipse cx="361" cy="131" fill="#ADD1B2" rx="11" ry="11" style="stroke:#181818;stroke-width:1.0;"/><path d="M360.4688,137.9219 Q358.7188,137.9219 357.5781,137.1875 Q356.4531,136.4375 355.8906,135.0938 Q355.3438,133.7344 355.3438,131.9375 Q355.3438,129.9063 356,128.4531 Q356.6563,127 357.9375,126.2188 Q359.2188,125.4375 361.0938,125.4375 Q361.9844,125.4375 362.6563,125.625 Q363.3281,125.7969 364.0156,126.1406 L363.2031,128.1563 Q362.5781,127.8438 362.0313,127.7188 Q361.5,127.5938 361.0156,127.5938 Q359.8438,127.5938 359.1406,128.125 Q358.4375,128.6563 358.1406,129.6094 Q357.8438,130.5625 357.8438,131.8281 Q357.8438,133.8438 358.5625,134.8125 Q359.2813,135.7656 360.875,135.7656 Q361.4688,135.7656 362.0938,135.6094 Q362.7188,135.4531 363.5469,135.0781 L363.5469,137.2969 Q362.8125,137.6094 362.0156,137.7656 Q361.2344,137.9219 360.4688,137.9219 Z " fill="#000000"/><text fill="#000000" font-family="sans-serif" font-size="14" lengthAdjust="spacing" textLength="53" x="375" y="136.432">Jugador</text><line style="stroke:#181818;stroke-width:0.5;" x1="347" x2="430" y1="147" y2="147"/><line style="stroke:#181818;stroke-width:0.5;" x1="347" x2="430" y1="155" y2="155"/></g><!--class Cesped--><g id="elem_Cesped"><rect codeLine="13" fill="#F1F1F1" height="48" id="Cesped" rx="2.5" ry="2.5" style="stroke:#181818;stroke-width:0.5;" width="76" x="542.5" y="392"/><ellipse cx="557.5" cy="408" fill="#A9DCDF" rx="11" ry="11" style="stroke:#181818;stroke-width:1.0;"/><path d="M552.6719,413.75 L556.0156,401.5625 L559.1563,401.5625 L562.5313,413.75 L560.0625,413.75 L559.3281,410.7344 L555.8125,410.7344 L555.0625,413.75 L552.6719,413.75 Z M557.0781,405.7031 L556.3281,408.7031 L558.8438,408.7031 L558.125,405.7031 Q557.9844,405.125 557.8594,404.5781 Q557.7344,404.0156 557.5938,403.4375 Q557.4844,404.0156 557.3438,404.5781 Q557.2031,405.125 557.0781,405.7031 Z " fill="#000000"/><text fill="#000000" font-family="sans-serif" font-size="14" font-style="italic" lengthAdjust="spacing" textLength="44" x="571.5" y="413.432">Cesped</text><line style="stroke:#181818;stroke-width:0.5;" x1="543.5" x2="617.5" y1="424" y2="424"/><line style="stroke:#181818;stroke-width:0.5;" x1="543.5" x2="617.5" y1="432" y2="432"/></g><!--class Agua--><g id="elem_Agua"><rect codeLine="14" fill="#F1F1F1" height="48" id="Agua" rx="2.5" ry="2.5" style="stroke:#181818;stroke-width:0.5;" width="64" x="418.5" y="392"/><ellipse cx="433.5" cy="408" fill="#A9DCDF" rx="11" ry="11" style="stroke:#181818;stroke-width:1.0;"/><path d="M428.6719,413.75 L432.0156,401.5625 L435.1563,401.5625 L438.5313,413.75 L436.0625,413.75 L435.3281,410.7344 L431.8125,410.7344 L431.0625,413.75 L428.6719,413.75 Z M433.0781,405.7031 L432.3281,408.7031 L434.8438,408.7031 L434.125,405.7031 Q433.9844,405.125 433.8594,404.5781 Q433.7344,404.0156 433.5938,403.4375 Q433.4844,404.0156 433.3438,404.5781 Q433.2031,405.125 433.0781,405.7031 Z " fill="#000000"/><text fill="#000000" font-family="sans-serif" font-size="14" font-style="italic" lengthAdjust="spacing" textLength="32" x="447.5" y="413.432">Agua</text><line style="stroke:#181818;stroke-width:0.5;" x1="419.5" x2="481.5" y1="424" y2="424"/><line style="stroke:#181818;stroke-width:0.5;" x1="419.5" x2="481.5" y1="432" y2="432"/></g><!--class Suelo--><g id="elem_Suelo"><rect fill="#F1F1F1" height="48" id="Suelo" rx="2.5" ry="2.5" style="stroke:#181818;stroke-width:0.5;" width="69" x="654" y="392"/><ellipse cx="669" cy="408" fill="#ADD1B2" rx="11" ry="11" style="stroke:#181818;stroke-width:1.0;"/><path d="M668.4688,414.9219 Q666.7188,414.9219 665.5781,414.1875 Q664.4531,413.4375 663.8906,412.0938 Q663.3438,410.7344 663.3438,408.9375 Q663.3438,406.9063 664,405.4531 Q664.6563,404 665.9375,403.2188 Q667.2188,402.4375 669.0938,402.4375 Q669.9844,402.4375 670.6563,402.625 Q671.3281,402.7969 672.0156,403.1406 L671.2031,405.1563 Q670.5781,404.8438 670.0313,404.7188 Q669.5,404.5938 669.0156,404.5938 Q667.8438,404.5938 667.1406,405.125 Q666.4375,405.6563 666.1406,406.6094 Q665.8438,407.5625 665.8438,408.8281 Q665.8438,410.8438 666.5625,411.8125 Q667.2813,412.7656 668.875,412.7656 Q669.4688,412.7656 670.0938,412.6094 Q670.7188,412.4531 671.5469,412.0781 L671.5469,414.2969 Q670.8125,414.6094 670.0156,414.7656 Q669.2344,414.9219 668.4688,414.9219 Z " fill="#000000"/><text fill="#000000" font-family="sans-serif" font-size="14" lengthAdjust="spacing" textLength="37" x="683" y="413.432">Suelo</text><line style="stroke:#181818;stroke-width:0.5;" x1="655" x2="722" y1="424" y2="424"/><line style="stroke:#181818;stroke-width:0.5;" x1="655" x2="722" y1="432" y2="432"/></g><!--class Arena--><g id="elem_Arena"><rect fill="#F1F1F1" height="48" id="Arena" rx="2.5" ry="2.5" style="stroke:#181818;stroke-width:0.5;" width="72" x="757.5" y="392"/><ellipse cx="772.5" cy="408" fill="#ADD1B2" rx="11" ry="11" style="stroke:#181818;stroke-width:1.0;"/><path d="M771.9688,414.9219 Q770.2188,414.9219 769.0781,414.1875 Q767.9531,413.4375 767.3906,412.0938 Q766.8438,410.7344 766.8438,408.9375 Q766.8438,406.9063 767.5,405.4531 Q768.1563,404 769.4375,403.2188 Q770.7188,402.4375 772.5938,402.4375 Q773.4844,402.4375 774.1563,402.625 Q774.8281,402.7969 775.5156,403.1406 L774.7031,405.1563 Q774.0781,404.8438 773.5313,404.7188 Q773,404.5938 772.5156,404.5938 Q771.3438,404.5938 770.6406,405.125 Q769.9375,405.6563 769.6406,406.6094 Q769.3438,407.5625 769.3438,408.8281 Q769.3438,410.8438 770.0625,411.8125 Q770.7813,412.7656 772.375,412.7656 Q772.9688,412.7656 773.5938,412.6094 Q774.2188,412.4531 775.0469,412.0781 L775.0469,414.2969 Q774.3125,414.6094 773.5156,414.7656 Q772.7344,414.9219 771.9688,414.9219 Z " fill="#000000"/><text fill="#000000" font-family="sans-serif" font-size="14" lengthAdjust="spacing" textLength="40" x="786.5" y="413.432">Arena</text><line style="stroke:#181818;stroke-width:0.5;" x1="758.5" x2="828.5" y1="424" y2="424"/><line style="stroke:#181818;stroke-width:0.5;" x1="758.5" x2="828.5" y1="432" y2="432"/></g><!--class Paredes--><g id="elem_Paredes"><rect fill="#F1F1F1" height="48" id="Paredes" rx="2.5" ry="2.5" style="stroke:#181818;stroke-width:0.5;" width="86" x="864.5" y="392"/><ellipse cx="879.5" cy="408" fill="#ADD1B2" rx="11" ry="11" style="stroke:#181818;stroke-width:1.0;"/><path d="M878.9688,414.9219 Q877.2188,414.9219 876.0781,414.1875 Q874.9531,413.4375 874.3906,412.0938 Q873.8438,410.7344 873.8438,408.9375 Q873.8438,406.9063 874.5,405.4531 Q875.1563,404 876.4375,403.2188 Q877.7188,402.4375 879.5938,402.4375 Q880.4844,402.4375 881.1563,402.625 Q881.8281,402.7969 882.5156,403.1406 L881.7031,405.1563 Q881.0781,404.8438 880.5313,404.7188 Q880,404.5938 879.5156,404.5938 Q878.3438,404.5938 877.6406,405.125 Q876.9375,405.6563 876.6406,406.6094 Q876.3438,407.5625 876.3438,408.8281 Q876.3438,410.8438 877.0625,411.8125 Q877.7813,412.7656 879.375,412.7656 Q879.9688,412.7656 880.5938,412.6094 Q881.2188,412.4531 882.0469,412.0781 L882.0469,414.2969 Q881.3125,414.6094 880.5156,414.7656 Q879.7344,414.9219 878.9688,414.9219 Z " fill="#000000"/><text fill="#000000" font-family="sans-serif" font-size="14" lengthAdjust="spacing" textLength="54" x="893.5" y="413.432">Paredes</text><line style="stroke:#181818;stroke-width:0.5;" x1="865.5" x2="949.5" y1="424" y2="424"/><line style="stroke:#181818;stroke-width:0.5;" x1="865.5" x2="949.5" y1="432" y2="432"/></g><!--class CespedBajo--><g id="elem_CespedBajo"><rect fill="#F1F1F1" height="48" id="CespedBajo" rx="2.5" ry="2.5" style="stroke:#181818;stroke-width:0.5;" width="111" x="538" y="500"/><ellipse cx="553" cy="516" fill="#ADD1B2" rx="11" ry="11" style="stroke:#181818;stroke-width:1.0;"/><path d="M552.4688,522.9219 Q550.7188,522.9219 549.5781,522.1875 Q548.4531,521.4375 547.8906,520.0938 Q547.3438,518.7344 547.3438,516.9375 Q547.3438,514.9063 548,513.4531 Q548.6563,512 549.9375,511.2188 Q551.2188,510.4375 553.0938,510.4375 Q553.9844,510.4375 554.6563,510.625 Q555.3281,510.7969 556.0156,511.1406 L555.2031,513.1563 Q554.5781,512.8438 554.0313,512.7188 Q553.5,512.5938 553.0156,512.5938 Q551.8438,512.5938 551.1406,513.125 Q550.4375,513.6563 550.1406,514.6094 Q549.8438,515.5625 549.8438,516.8281 Q549.8438,518.8438 550.5625,519.8125 Q551.2813,520.7656 552.875,520.7656 Q553.4688,520.7656 554.0938,520.6094 Q554.7188,520.4531 555.5469,520.0781 L555.5469,522.2969 Q554.8125,522.6094 554.0156,522.7656 Q553.2344,522.9219 552.4688,522.9219 Z " fill="#000000"/><text fill="#000000" font-family="sans-serif" font-size="14" lengthAdjust="spacing" textLength="79" x="567" y="521.432">CespedBajo</text><line style="stroke:#181818;stroke-width:0.5;" x1="539" x2="648" y1="532" y2="532"/><line style="stroke:#181818;stroke-width:0.5;" x1="539" x2="648" y1="540" y2="540"/></g><!--class CespedMedio--><g id="elem_CespedMedio"><rect fill="#F1F1F1" height="48" id="CespedMedio" rx="2.5" ry="2.5" style="stroke:#181818;stroke-width:0.5;" width="124" x="684.5" y="500"/><ellipse cx="699.5" cy="516" fill="#ADD1B2" rx="11" ry="11" style="stroke:#181818;stroke-width:1.0;"/><path d="M698.9688,522.9219 Q697.2188,522.9219 696.0781,522.1875 Q694.9531,521.4375 694.3906,520.0938 Q693.8438,518.7344 693.8438,516.9375 Q693.8438,514.9063 694.5,513.4531 Q695.1563,512 696.4375,511.2188 Q697.7188,510.4375 699.5938,510.4375 Q700.4844,510.4375 701.1563,510.625 Q701.8281,510.7969 702.5156,511.1406 L701.7031,513.1563 Q701.0781,512.8438 700.5313,512.7188 Q700,512.5938 699.5156,512.5938 Q698.3438,512.5938 697.6406,513.125 Q696.9375,513.6563 696.6406,514.6094 Q696.3438,515.5625 696.3438,516.8281 Q696.3438,518.8438 697.0625,519.8125 Q697.7813,520.7656 699.375,520.7656 Q699.9688,520.7656 700.5938,520.6094 Q701.2188,520.4531 702.0469,520.0781 L702.0469,522.2969 Q701.3125,522.6094 700.5156,522.7656 Q699.7344,522.9219 698.9688,522.9219 Z " fill="#000000"/><text fill="#000000" font-family="sans-serif" font-size="14" lengthAdjust="spacing" textLength="92" x="713.5" y="521.432">CespedMedio</text><line style="stroke:#181818;stroke-width:0.5;" x1="685.5" x2="807.5" y1="532" y2="532"/><line style="stroke:#181818;stroke-width:0.5;" x1="685.5" x2="807.5" y1="540" y2="540"/></g><!--class CespedAlto--><g id="elem_CespedAlto"><rect fill="#F1F1F1" height="48" id="CespedAlto" rx="2.5" ry="2.5" style="stroke:#181818;stroke-width:0.5;" width="108" x="843.5" y="500"/><ellipse cx="858.5" cy="516" fill="#ADD1B2" rx="11" ry="11" style="stroke:#181818;stroke-width:1.0;"/><path d="M857.9688,522.9219 Q856.2188,522.9219 855.0781,522.1875 Q853.9531,521.4375 853.3906,520.0938 Q852.8438,518.7344 852.8438,516.9375 Q852.8438,514.9063 853.5,513.4531 Q854.1563,512 855.4375,511.2188 Q856.7188,510.4375 858.5938,510.4375 Q859.4844,510.4375 860.1563,510.625 Q860.8281,510.7969 861.5156,511.1406 L860.7031,513.1563 Q860.0781,512.8438 859.5313,512.7188 Q859,512.5938 858.5156,512.5938 Q857.3438,512.5938 856.6406,513.125 Q855.9375,513.6563 855.6406,514.6094 Q855.3438,515.5625 855.3438,516.8281 Q855.3438,518.8438 856.0625,519.8125 Q856.7813,520.7656 858.375,520.7656 Q858.9688,520.7656 859.5938,520.6094 Q860.2188,520.4531 861.0469,520.0781 L861.0469,522.2969 Q860.3125,522.6094 859.5156,522.7656 Q858.7344,522.9219 857.9688,522.9219 Z " fill="#000000"/><text fill="#000000" font-family="sans-serif" font-size="14" lengthAdjust="spacing" textLength="76" x="872.5" y="521.432">CespedAlto</text><line style="stroke:#181818;stroke-width:0.5;" x1="844.5" x2="950.5" y1="532" y2="532"/><line style="stroke:#181818;stroke-width:0.5;" x1="844.5" x2="950.5" y1="540" y2="540"/></g><!--class AguasNormales--><g id="elem_AguasNormales"><rect fill="#F1F1F1" height="48" id="AguasNormales" rx="2.5" ry="2.5" style="stroke:#181818;stroke-width:0.5;" width="139" x="7" y="500"/><ellipse cx="22" cy="516" fill="#ADD1B2" rx="11" ry="11" style="stroke:#181818;stroke-width:1.0;"/><path d="M21.4688,522.9219 Q19.7188,522.9219 18.5781,522.1875 Q17.4531,521.4375 16.8906,520.0938 Q16.3438,518.7344 16.3438,516.9375 Q16.3438,514.9063 17,513.4531 Q17.6563,512 18.9375,511.2188 Q20.2188,510.4375 22.0938,510.4375 Q22.9844,510.4375 23.6563,510.625 Q24.3281,510.7969 25.0156,511.1406 L24.2031,513.1563 Q23.5781,512.8438 23.0313,512.7188 Q22.5,512.5938 22.0156,512.5938 Q20.8438,512.5938 20.1406,513.125 Q19.4375,513.6563 19.1406,514.6094 Q18.8438,515.5625 18.8438,516.8281 Q18.8438,518.8438 19.5625,519.8125 Q20.2813,520.7656 21.875,520.7656 Q22.4688,520.7656 23.0938,520.6094 Q23.7188,520.4531 24.5469,520.0781 L24.5469,522.2969 Q23.8125,522.6094 23.0156,522.7656 Q22.2344,522.9219 21.4688,522.9219 Z " fill="#000000"/><text fill="#000000" font-family="sans-serif" font-size="14" lengthAdjust="spacing" textLength="107" x="36" y="521.432">AguasNormales</text><line style="stroke:#181818;stroke-width:0.5;" x1="8" x2="145" y1="532" y2="532"/><line style="stroke:#181818;stroke-width:0.5;" x1="8" x2="145" y1="540" y2="540"/></g><!--class AguasTurbulentas--><g id="elem_AguasTurbulentas"><rect fill="#F1F1F1" height="48" id="AguasTurbulentas" rx="2.5" ry="2.5" style="stroke:#181818;stroke-width:0.5;" width="156" x="181.5" y="500"/><ellipse cx="196.5" cy="516" fill="#ADD1B2" rx="11" ry="11" style="stroke:#181818;stroke-width:1.0;"/><path d="M195.9688,522.9219 Q194.2188,522.9219 193.0781,522.1875 Q191.9531,521.4375 191.3906,520.0938 Q190.8438,518.7344 190.8438,516.9375 Q190.8438,514.9063 191.5,513.4531 Q192.1563,512 193.4375,511.2188 Q194.7188,510.4375 196.5938,510.4375 Q197.4844,510.4375 198.1563,510.625 Q198.8281,510.7969 199.5156,511.1406 L198.7031,513.1563 Q198.0781,512.8438 197.5313,512.7188 Q197,512.5938 196.5156,512.5938 Q195.3438,512.5938 194.6406,513.125 Q193.9375,513.6563 193.6406,514.6094 Q193.3438,515.5625 193.3438,516.8281 Q193.3438,518.8438 194.0625,519.8125 Q194.7813,520.7656 196.375,520.7656 Q196.9688,520.7656 197.5938,520.6094 Q198.2188,520.4531 199.0469,520.0781 L199.0469,522.2969 Q198.3125,522.6094 197.5156,522.7656 Q196.7344,522.9219 195.9688,522.9219 Z " fill="#000000"/><text fill="#000000" font-family="sans-serif" font-size="14" lengthAdjust="spacing" textLength="124" x="210.5" y="521.432">AguasTurbulentas</text><line style="stroke:#181818;stroke-width:0.5;" x1="182.5" x2="336.5" y1="532" y2="532"/><line style="stroke:#181818;stroke-width:0.5;" x1="182.5" x2="336.5" y1="540" y2="540"/></g><!--class AguasPutridas--><g id="elem_AguasPutridas"><rect fill="#F1F1F1" height="48" id="AguasPutridas" rx="2.5" ry="2.5" style="stroke:#181818;stroke-width:0.5;" width="130" x="372.5" y="500"/><ellipse cx="387.5" cy="516" fill="#ADD1B2" rx="11" ry="11" style="stroke:#181818;stroke-width:1.0;"/><path d="M386.9688,522.9219 Q385.2188,522.9219 384.0781,522.1875 Q382.9531,521.4375 382.3906,520.0938 Q381.8438,518.7344 381.8438,516.9375 Q381.8438,514.9063 382.5,513.4531 Q383.1563,512 384.4375,511.2188 Q385.7188,510.4375 387.5938,510.4375 Q388.4844,510.4375 389.1563,510.625 Q389.8281,510.7969 390.5156,511.1406 L389.7031,513.1563 Q389.0781,512.8438 388.5313,512.7188 Q388,512.5938 387.5156,512.5938 Q386.3438,512.5938 385.6406,513.125 Q384.9375,513.6563 384.6406,514.6094 Q384.3438,515.5625 384.3438,516.8281 Q384.3438,518.8438 385.0625,519.8125 Q385.7813,520.7656 387.375,520.7656 Q387.9688,520.7656 388.5938,520.6094 Q389.2188,520.4531 390.0469,520.0781 L390.0469,522.2969 Q389.3125,522.6094 388.5156,522.7656 Q387.7344,522.9219 386.9688,522.9219 Z " fill="#000000"/><text fill="#000000" font-family="sans-serif" font-size="14" lengthAdjust="spacing" textLength="98" x="401.5" y="521.432">AguasPutridas</text><line style="stroke:#181818;stroke-width:0.5;" x1="373.5" x2="501.5" y1="532" y2="532"/><line style="stroke:#181818;stroke-width:0.5;" x1="373.5" x2="501.5" y1="540" y2="540"/></g><!--class AguasRapidas--><g id="elem_AguasRapidas"><rect fill="#F1F1F1" height="48" id="AguasRapidas" rx="2.5" ry="2.5" style="stroke:#181818;stroke-width:0.5;" width="128" x="12.5" y="608"/><ellipse cx="27.5" cy="624" fill="#ADD1B2" rx="11" ry="11" style="stroke:#181818;stroke-width:1.0;"/><path d="M26.9688,630.9219 Q25.2188,630.9219 24.0781,630.1875 Q22.9531,629.4375 22.3906,628.0938 Q21.8438,626.7344 21.8438,624.9375 Q21.8438,622.9063 22.5,621.4531 Q23.1563,620 24.4375,619.2188 Q25.7188,618.4375 27.5938,618.4375 Q28.4844,618.4375 29.1563,618.625 Q29.8281,618.7969 30.5156,619.1406 L29.7031,621.1563 Q29.0781,620.8438 28.5313,620.7188 Q28,620.5938 27.5156,620.5938 Q26.3438,620.5938 25.6406,621.125 Q24.9375,621.6563 24.6406,622.6094 Q24.3438,623.5625 24.3438,624.8281 Q24.3438,626.8438 25.0625,627.8125 Q25.7813,628.7656 27.375,628.7656 Q27.9688,628.7656 28.5938,628.6094 Q29.2188,628.4531 30.0469,628.0781 L30.0469,630.2969 Q29.3125,630.6094 28.5156,630.7656 Q27.7344,630.9219 26.9688,630.9219 Z " fill="#000000"/><text fill="#000000" font-family="sans-serif" font-size="14" lengthAdjust="spacing" textLength="96" x="41.5" y="629.432">AguasRapidas</text><line style="stroke:#181818;stroke-width:0.5;" x1="13.5" x2="139.5" y1="640" y2="640"/><line style="stroke:#181818;stroke-width:0.5;" x1="13.5" x2="139.5" y1="648" y2="648"/></g><!--link PyMundoDemo to Mundo--><g id="link_PyMundoDemo_Mundo"><path codeLine="4" d="M584.55,55.26 C574.72,72.94 564.1681,91.8874 554.3381,109.5474 " fill="none" id="PyMundoDemo-to-Mundo" style="stroke:#181818;stroke-width:1.0;"/><polygon fill="#181818" points="551.42,114.79,559.2923,108.8716,553.8518,110.4212,552.3022,104.9807,551.42,114.79" style="stroke:#181818;stroke-width:1.0;"/></g><!--link PyMundoDemo to Console--><g id="link_PyMundoDemo_Console"><path codeLine="5" d="M610.45,55.26 C620.28,72.94 630.8319,91.8874 640.6619,109.5474 " fill="none" id="PyMundoDemo-to-Console" style="stroke:#181818;stroke-width:1.0;stroke-dasharray:7.0,7.0;"/><polygon fill="#181818" points="643.58,114.79,642.6978,104.9807,641.1482,110.4212,635.7077,108.8716,643.58,114.79" style="stroke:#181818;stroke-width:1.0;"/></g><!--link Mundo to Terreno--><g id="link_Mundo_Terreno"><path codeLine="6" d="M547.2659,174.8578 C555.2659,206.6778 565.1671,246.0311 573.1771,277.8911 " fill="none" id="Mundo-Terreno" style="stroke:#181818;stroke-width:1.0;"/><polygon fill="#181818" points="544.34,163.22,541.9237,170.0142,547.2659,174.8578,549.6822,168.0636,544.34,163.22" style="stroke:#181818;stroke-width:1.0;"/><polygon fill="#181818" points="574.64,283.71,576.3249,274.0063,573.4209,278.8609,568.5663,275.9569,574.64,283.71" style="stroke:#181818;stroke-width:1.0;"/></g><!--link Jugador to Mundo--><g id="link_Jugador_Mundo"><path codeLine="7" d="M437.27,139 C459.61,139 463.95,139 486.29,139 " fill="none" id="Jugador-Mundo" style="stroke:#181818;stroke-width:1.0;"/><polygon fill="#181818" points="431.27,139,440.27,143,436.27,139,440.27,135,431.27,139" style="stroke:#181818;stroke-width:1.0;"/><polygon fill="none" points="498.29,139,492.29,135,486.29,139,492.29,143,498.29,139" style="stroke:#181818;stroke-width:1.0;"/></g><!--link Jugador to MedioTransporte--><g id="link_Jugador_MedioTransporte"><path codeLine="8" d="M381.76,163.45 C366.84,215.4 332.7867,333.9433 317.8767,385.8433 " fill="none" id="Jugador-to-MedioTransporte" style="stroke:#181818;stroke-width:1.0;"/><polygon fill="#181818" points="316.22,391.61,322.5495,384.0643,317.6006,386.8044,314.8605,381.8554,316.22,391.61" style="stroke:#181818;stroke-width:1.0;"/></g><!--link Terreno to MedioTransporte--><g id="link_Terreno_MedioTransporte"><path codeLine="9" d="M539.64,324.98 C494.46,342.65 426.8473,369.0933 375.1573,389.3233 " fill="none" id="Terreno-to-MedioTransporte" style="stroke:#181818;stroke-width:1.0;stroke-dasharray:7.0,7.0;"/><polygon fill="#181818" points="369.57,391.51,379.4088,391.9548,374.2261,389.6877,376.4932,384.505,369.57,391.51" style="stroke:#181818;stroke-width:1.0;"/></g><!--reverse link Terreno to Suelo--><g id="link_Terreno_Suelo"><path codeLine="16" d="M617.0451,344.8697 C635.0551,362.5497 646.86,374.13 664.85,391.79 " fill="none" id="Terreno-backto-Suelo" style="stroke:#181818;stroke-width:1.0;"/><polygon fill="none" points="604.2,332.26,612.8418,349.1514,621.2483,340.588,604.2,332.26" style="stroke:#181818;stroke-width:1.0;"/></g><!--reverse link Terreno to Arena--><g id="link_Terreno_Arena"><path codeLine="17" d="M637.4344,337.3303 C676.6944,356.8703 719.37,378.11 757.08,396.88 " fill="none" id="Terreno-backto-Arena" style="stroke:#181818;stroke-width:1.0;"/><polygon fill="none" points="621.32,329.31,634.761,342.7018,640.1079,331.9588,621.32,329.31" style="stroke:#181818;stroke-width:1.0;"/></g><!--reverse link Terreno to Paredes--><g id="link_Terreno_Paredes"><path codeLine="18" d="M638.7541,325.9002 C691.3941,341.3202 768.16,364.49 847.5,392 C852.88,393.86 858.49,395.9 864.04,397.96 " fill="none" id="Terreno-backto-Paredes" style="stroke:#181818;stroke-width:1.0;"/><polygon fill="none" points="621.48,320.84,637.0674,331.6582,640.4408,320.1421,621.48,320.84" style="stroke:#181818;stroke-width:1.0;"/></g><!--reverse link Terreno to Cesped--><g id="link_Terreno_Cesped"><path codeLine="19" d="M580.5,350.26 C580.5,367.94 580.5,374.13 580.5,391.79 " fill="none" id="Terreno-backto-Cesped" style="stroke:#181818;stroke-width:1.0;"/><polygon fill="none" points="580.5,332.26,574.5,350.26,586.5,350.26,580.5,332.26" style="stroke:#181818;stroke-width:1.0;"/></g><!--reverse link Terreno to Agua--><g id="link_Terreno_Agua"><path codeLine="20" d="M538.023,343.639 C516.353,361.319 500.62,374.13 478.96,391.79 " fill="none" id="Terreno-backto-Agua" style="stroke:#181818;stroke-width:1.0;"/><polygon fill="none" points="551.97,332.26,534.23,338.99,541.816,348.288,551.97,332.26" style="stroke:#181818;stroke-width:1.0;"/></g><!--reverse link Cesped to CespedBajo--><g id="link_Cesped_CespedBajo"><path codeLine="22" d="M585.5428,458.1259 C587.7128,475.8059 588.49,482.13 590.65,499.79 " fill="none" id="Cesped-backto-CespedBajo" style="stroke:#181818;stroke-width:1.0;"/><polygon fill="none" points="583.35,440.26,579.5875,458.8569,591.4981,457.395,583.35,440.26" style="stroke:#181818;stroke-width:1.0;"/></g><!--reverse link Cesped to CespedMedio--><g id="link_Cesped_CespedMedio"><path codeLine="23" d="M632.1012,449.9469 C659.6812,467.5569 682.24,481.97 709.87,499.61 " fill="none" id="Cesped-backto-CespedMedio" style="stroke:#181818;stroke-width:1.0;"/><polygon fill="none" points="616.93,440.26,628.8722,455.0039,635.3301,444.8898,616.93,440.26" style="stroke:#181818;stroke-width:1.0;"/></g><!--reverse link Cesped to CespedAlto--><g id="link_Cesped_CespedAlto"><path codeLine="24" d="M635.6165,439.9352 C641.4765,442.2752 630.77,437.92 636.5,440 C719.33,470.1 741.52,473.26 825.5,500 C831.25,501.83 837.26,503.75 843.25,505.66 " fill="none" id="Cesped-backto-CespedAlto" style="stroke:#181818;stroke-width:1.0;"/><polygon fill="none" points="618.9,433.26,633.3914,445.5074,637.8416,434.363,618.9,433.26" style="stroke:#181818;stroke-width:1.0;"/></g><!--reverse link Agua to AguasNormales--><g id="link_Agua_AguasNormales"><path codeLine="26" d="M401.7425,440.5655 C396.2525,443.0155 406.99,438.04 401.5,440 C298.76,476.68 269.12,472.73 163.5,500 C157.9,501.45 152.11,502.95 146.29,504.48 " fill="none" id="Agua-backto-AguasNormales" style="stroke:#181818;stroke-width:1.0;"/><polygon fill="none" points="418.18,433.23,399.2974,435.0863,404.1877,446.0446,418.18,433.23" style="stroke:#181818;stroke-width:1.0;"/></g><!--reverse link Agua to AguasTurbulentas--><g id="link_Agua_AguasTurbulentas"><path codeLine="27" d="M402.361,443.7141 C370.321,461.4941 336.88,480.06 301.78,499.53 " fill="none" id="Agua-backto-AguasTurbulentas" style="stroke:#181818;stroke-width:1.0;"/><polygon fill="none" points="418.1,434.98,399.4496,438.4677,405.2724,448.9604,418.1,434.98" style="stroke:#181818;stroke-width:1.0;"/></g><!--reverse link Agua to AguasPutridas--><g id="link_Agua_AguasPutridas"><path codeLine="28" d="M445.4572,458.1259 C443.2872,475.8059 442.51,482.13 440.35,499.79 " fill="none" id="Agua-backto-AguasPutridas" style="stroke:#181818;stroke-width:1.0;"/><polygon fill="none" points="447.65,440.26,439.5019,457.395,451.4125,458.8569,447.65,440.26" style="stroke:#181818;stroke-width:1.0;"/></g><!--reverse link AguasNormales to AguasRapidas--><g id="link_AguasNormales_AguasRapidas"><path codeLine="29" d="M76.5,566.26 C76.5,583.94 76.5,590.13 76.5,607.79 " fill="none" id="AguasNormales-backto-AguasRapidas" style="stroke:#181818;stroke-width:1.0;"/><polygon fill="none" points="76.5,548.26,70.5,566.26,82.5,566.26,76.5,548.26" style="stroke:#181818;stroke-width:1.0;"/></g><!--SRC=[ROz1YiCm34NtEeNN1US8WKndDT0XT781fHQbWsC5sLeCpE6REcvAtMui_BxqzKL19tCWT-51CCIP9H50_tVGuFYJ9ZRMsTRahtdYZMjQi-SGsHEi-ixcve54A721RFt2llICZWLADLPkhizx3PH9qpJjQoZ0CIR1KzeMR61FSIRt-7TdHO0V9R_aL_l_oDGjBrQiHo57iQAhPps-65UeD7xWxtrNIREMVCOxeVEfujazVhDCwBSu-PGi32gZUWe9NxLUarpS6-68SyMt1N05]--></g></svg>