<?xml version="1.0" encoding="us-ascii" standalone="no"?><svg xmlns="http://www.w3.org/2000/svg" xmlns:xlink="http://www.w3.org/1999/xlink" contentStyleType="text/css" height="555px" preserveAspectRatio="none" style="width:805px;height:555px;background:#FFFFFF;" version="1.1" viewBox="0 0 805 555" width="805px" zoomAndPan="magnify"><defs/><g><!--class MedioTransporte--><g id="elem_MedioTransporte"><rect codeLine="2" fill="#F1F1F1" height="48" id="MedioTransporte" rx="2.5" ry="2.5" style="stroke:#181818;stroke-width:0.5;" width="148" x="108.5" y="392"/><ellipse cx="123.5" cy="408" fill="#EB937F" rx="11" ry="11" style="stroke:#181818;stroke-width:1.0;"/><path d="M119.8594,414.5 L119.8594,402.3594 L127.5156,402.3594 L127.5156,404.4844 L122.2344,404.4844 L122.2344,407.1406 L127.25,407.1406 L127.25,409.2656 L122.2344,409.2656 L122.2344,412.375 L127.5156,412.375 L127.5156,414.5 L119.8594,414.5 Z " fill="#000000"/><text fill="#000000" font-family="sans-serif" font-size="14" lengthAdjust="spacing" textLength="116" x="137.5" y="413.432">MedioTransporte</text><line style="stroke:#181818;stroke-width:0.5;" x1="109.5" x2="255.5" y1="424" y2="424"/><line style="stroke:#181818;stroke-width:0.5;" x1="109.5" x2="255.5" y1="432" y2="432"/></g><!--class PyMundoDemo--><g id="elem_PyMundoDemo"><rect fill="#F1F1F1" height="48" id="PyMundoDemo" rx="2.5" ry="2.5" style="stroke:#181818;stroke-width:0.5;" width="134" x="396.5" y="7"/><ellipse cx="411.5" cy="23" fill="#ADD1B2" rx="11" ry="11" style="stroke:#181818;stroke-width:1.0;"/><path d="M410.9688,29.9219 Q409.2188,29.9219 408.0781,29.1875 Q406.9531,28.4375 406.3906,27.0938 Q405.8438,25.7344 405.8438,23.9375 Q405.8438,21.9063 406.5,20.4531 Q407.1563,19 408.4375,18.2188 Q409.7188,17.4375 411.5938,17.4375 Q412.4844,17.4375 413.1563,17.625 Q413.8281,17.7969 414.5156,18.1406 L413.7031,20.1563 Q413.0781,19.8438 412.5313,19.7188 Q412,19.5938 411.5156,19.5938 Q410.3438,19.5938 409.6406,20.125 Q408.9375,20.6563 408.6406,21.6094 Q408.3438,22.5625 408.3438,23.8281 Q408.3438,25.8438 409.0625,26.8125 Q409.7813,27.7656 411.375,27.7656 Q411.9688,27.7656 412.5938,27.6094 Q413.2188,27.4531 414.0469,27.0781 L414.0469,29.2969 Q413.3125,29.6094 412.5156,29.7656 Q411.7344,29.9219 410.9688,29.9219 Z " fill="#000000"/><text fill="#000000" font-family="sans-serif" font-size="14" lengthAdjust="spacing" textLength="102" x="425.5" y="28.432">PyMundoDemo</text><line style="stroke:#181818;stroke-width:0.5;" x1="397.5" x2="529.5" y1="39" y2="39"/><line style="stroke:#181818;stroke-width:0.5;" x1="397.5" x2="529.5" y1="47" y2="47"/></g><!--class Mundo--><g id="elem_Mundo"><rect fill="#F1F1F1" height="48" id="Mundo" rx="2.5" ry="2.5" style="stroke:#181818;stroke-width:0.5;" width="80" x="364.5" y="115"/><ellipse cx="379.5" cy="131" fill="#ADD1B2" rx="11" ry="11" style="stroke:#181818;stroke-width:1.0;"/><path d="M378.9688,137.9219 Q377.2188,137.9219 376.0781,137.1875 Q374.9531,136.4375 374.3906,135.0938 Q373.8438,133.7344 373.8438,131.9375 Q373.8438,129.9063 374.5,128.4531 Q375.1563,127 376.4375,126.2188 Q377.7188,125.4375 379.5938,125.4375 Q380.4844,125.4375 381.1563,125.625 Q381.8281,125.7969 382.5156,126.1406 L381.7031,128.1563 Q381.0781,127.8438 380.5313,127.7188 Q380,127.5938 379.5156,127.5938 Q378.3438,127.5938 377.6406,128.125 Q376.9375,128.6563 376.6406,129.6094 Q376.3438,130.5625 376.3438,131.8281 Q376.3438,133.8438 377.0625,134.8125 Q377.7813,135.7656 379.375,135.7656 Q379.9688,135.7656 380.5938,135.6094 Q381.2188,135.4531 382.0469,135.0781 L382.0469,137.2969 Q381.3125,137.6094 380.5156,137.7656 Q379.7344,137.9219 378.9688,137.9219 Z " fill="#000000"/><text fill="#000000" font-family="sans-serif" font-size="14" lengthAdjust="spacing" textLength="48" x="393.5" y="136.432">Mundo</text><line style="stroke:#181818;stroke-width:0.5;" x1="365.5" x2="443.5" y1="147" y2="147"/><line style="stroke:#181818;stroke-width:0.5;" x1="365.5" x2="443.5" y1="155" y2="155"/></g><!--class Console--><g id="elem_Console"><rect fill="#F1F1F1" height="48" id="Console" rx="2.5" ry="2.5" style="stroke:#181818;stroke-width:0.5;" width="85" x="480" y="115"/><ellipse cx="495" cy="131" fill="#ADD1B2" rx="11" ry="11" style="stroke:#181818;stroke-width:1.0;"/><path d="M494.4688,137.9219 Q492.7188,137.9219 491.5781,137.1875 Q490.4531,136.4375 489.8906,135.0938 Q489.3438,133.7344 489.3438,131.9375 Q489.3438,129.9063 490,128.4531 Q490.6563,127 491.9375,126.2188 Q493.2188,125.4375 495.0938,125.4375 Q495.9844,125.4375 496.6563,125.625 Q497.3281,125.7969 498.0156,126.1406 L497.2031,128.1563 Q496.5781,127.8438 496.0313,127.7188 Q495.5,127.5938 495.0156,127.5938 Q493.8438,127.5938 493.1406,128.125 Q492.4375,128.6563 492.1406,129.6094 Q491.8438,130.5625 491.8438,131.8281 Q491.8438,133.8438 492.5625,134.8125 Q493.2813,135.7656 494.875,135.7656 Q495.4688,135.7656 496.0938,135.6094 Q496.7188,135.4531 497.5469,135.0781 L497.5469,137.2969 Q496.8125,137.6094 496.0156,137.7656 Q495.2344,137.9219 494.4688,137.9219 Z " fill="#000000"/><text fill="#000000" font-family="sans-serif" font-size="14" lengthAdjust="spacing" textLength="53" x="509" y="136.432">Console</text><line style="stroke:#181818;stroke-width:0.5;" x1="481" x2="564" y1="147" y2="147"/><line style="stroke:#181818;stroke-width:0.5;" x1="481" x2="564" y1="155" y2="155"/></g><!--class Terreno--><g id="elem_Terreno"><rect codeLine="12" fill="#F1F1F1" height="48" id="Terreno" rx="2.5" ry="2.5" style="stroke:#181818;stroke-width:0.5;" width="81" x="388" y="284"/><ellipse cx="403" cy="300" fill="#A9DCDF" rx="11" ry="11" style="stroke:#181818;stroke-width:1.0;"/><path d="M398.1719,305.75 L401.5156,293.5625 L404.6563,293.5625 L408.0313,305.75 L405.5625,305.75 L404.8281,302.7344 L401.3125,302.7344 L400.5625,305.75 L398.1719,305.75 Z M402.5781,297.7031 L401.8281,300.7031 L404.3438,300.7031 L403.625,297.7031 Q403.4844,297.125 403.3594,296.5781 Q403.2344,296.0156 403.0938,295.4375 Q402.9844,296.0156 402.8438,296.5781 Q402.7031,297.125 402.5781,297.7031 Z " fill="#000000"/><text fill="#000000" font-family="sans-serif" font-size="14" font-style="italic" lengthAdjust="spacing" textLength="49" x="417" y="305.432">Terreno</text><line style="stroke:#181818;stroke-width:0.5;" x1="389" x2="468" y1="316" y2="316"/><line style="stroke:#181818;stroke-width:0.5;" x1="389" x2="468" y1="324" y2="324"/></g><!--class Jugador--><g id="elem_Jugador"><rect fill="#F1F1F1" height="48" id="Jugador" rx="2.5" ry="2.5" style="stroke:#181818;stroke-width:0.5;" width="85" x="212" y="115"/><ellipse cx="227" cy="131" fill="#ADD1B2" rx="11" ry="11" style="stroke:#181818;stroke-width:1.0;"/><path d="M226.4688,137.9219 Q224.7188,137.9219 223.5781,137.1875 Q222.4531,136.4375 221.8906,135.0938 Q221.3438,133.7344 221.3438,131.9375 Q221.3438,129.9063 222,128.4531 Q222.6563,127 223.9375,126.2188 Q225.2188,125.4375 227.0938,125.4375 Q227.9844,125.4375 228.6563,125.625 Q229.3281,125.7969 230.0156,126.1406 L229.2031,128.1563 Q228.5781,127.8438 228.0313,127.7188 Q227.5,127.5938 227.0156,127.5938 Q225.8438,127.5938 225.1406,128.125 Q224.4375,128.6563 224.1406,129.6094 Q223.8438,130.5625 223.8438,131.8281 Q223.8438,133.8438 224.5625,134.8125 Q225.2813,135.7656 226.875,135.7656 Q227.4688,135.7656 228.0938,135.6094 Q228.7188,135.4531 229.5469,135.0781 L229.5469,137.2969 Q228.8125,137.6094 228.0156,137.7656 Q227.2344,137.9219 226.4688,137.9219 Z " fill="#000000"/><text fill="#000000" font-family="sans-serif" font-size="14" lengthAdjust="spacing" textLength="53" x="241" y="136.432">Jugador</text><line style="stroke:#181818;stroke-width:0.5;" x1="213" x2="296" y1="147" y2="147"/><line style="stroke:#181818;stroke-width:0.5;" x1="213" x2="296" y1="155" y2="155"/></g><!--class Cesped--><g id="elem_Cesped"><rect codeLine="13" fill="#F1F1F1" height="48" id="Cesped" rx="2.5" ry="2.5" style="stroke:#181818;stroke-width:0.5;" width="76" x="390.5" y="392"/><ellipse cx="405.5" cy="408" fill="#A9DCDF" rx="11" ry="11" style="stroke:#181818;stroke-width:1.0;"/><path d="M400.6719,413.75 L404.0156,401.5625 L407.1563,401.5625 L410.5313,413.75 L408.0625,413.75 L407.3281,410.7344 L403.8125,410.7344 L403.0625,413.75 L400.6719,413.75 Z M405.0781,405.7031 L404.3281,408.7031 L406.8438,408.7031 L406.125,405.7031 Q405.9844,405.125 405.8594,404.5781 Q405.7344,404.0156 405.5938,403.4375 Q405.4844,404.0156 405.3438,404.5781 Q405.2031,405.125 405.0781,405.7031 Z " fill="#000000"/><text fill="#000000" font-family="sans-serif" font-size="14" font-style="italic" lengthAdjust="spacing" textLength="44" x="419.5" y="413.432">Cesped</text><line style="stroke:#181818;stroke-width:0.5;" x1="391.5" x2="465.5" y1="424" y2="424"/><line style="stroke:#181818;stroke-width:0.5;" x1="391.5" x2="465.5" y1="432" y2="432"/></g><!--class Agua--><g id="elem_Agua"><rect codeLine="14" fill="#F1F1F1" height="48" id="Agua" rx="2.5" ry="2.5" style="stroke:#181818;stroke-width:0.5;" width="64" x="291.5" y="392"/><ellipse cx="306.5" cy="408" fill="#A9DCDF" rx="11" ry="11" style="stroke:#181818;stroke-width:1.0;"/><path d="M301.6719,413.75 L305.0156,401.5625 L308.1563,401.5625 L311.5313,413.75 L309.0625,413.75 L308.3281,410.7344 L304.8125,410.7344 L304.0625,413.75 L301.6719,413.75 Z M306.0781,405.7031 L305.3281,408.7031 L307.8438,408.7031 L307.125,405.7031 Q306.9844,405.125 306.8594,404.5781 Q306.7344,404.0156 306.5938,403.4375 Q306.4844,404.0156 306.3438,404.5781 Q306.2031,405.125 306.0781,405.7031 Z " fill="#000000"/><text fill="#000000" font-family="sans-serif" font-size="14" font-style="italic" lengthAdjust="spacing" textLength="32" x="320.5" y="413.432">Agua</text><line style="stroke:#181818;stroke-width:0.5;" x1="292.5" x2="354.5" y1="424" y2="424"/><line style="stroke:#181818;stroke-width:0.5;" x1="292.5" x2="354.5" y1="432" y2="432"/></g><!--class Suelo--><g id="elem_Suelo"><rect fill="#F1F1F1" height="48" id="Suelo" rx="2.5" ry="2.5" style="stroke:#181818;stroke-width:0.5;" width="69" x="502" y="392"/><ellipse cx="517" cy="408" fill="#ADD1B2" rx="11" ry="11" style="stroke:#181818;stroke-width:1.0;"/><path d="M516.4688,414.9219 Q514.7188,414.9219 513.5781,414.1875 Q512.4531,413.4375 511.8906,412.0938 Q511.3438,410.7344 511.3438,408.9375 Q511.3438,406.9063 512,405.4531 Q512.6563,404 513.9375,403.2188 Q515.2188,402.4375 517.0938,402.4375 Q517.9844,402.4375 518.6563,402.625 Q519.3281,402.7969 520.0156,403.1406 L519.2031,405.1563 Q518.5781,404.8438 518.0313,404.7188 Q517.5,404.5938 517.0156,404.5938 Q515.8438,404.5938 515.1406,405.125 Q514.4375,405.6563 514.1406,406.6094 Q513.8438,407.5625 513.8438,408.8281 Q513.8438,410.8438 514.5625,411.8125 Q515.2813,412.7656 516.875,412.7656 Q517.4688,412.7656 518.0938,412.6094 Q518.7188,412.4531 519.5469,412.0781 L519.5469,414.2969 Q518.8125,414.6094 518.0156,414.7656 Q517.2344,414.9219 516.4688,414.9219 Z " fill="#000000"/><text fill="#000000" font-family="sans-serif" font-size="14" lengthAdjust="spacing" textLength="37" x="531" y="413.432">Suelo</text><line style="stroke:#181818;stroke-width:0.5;" x1="503" x2="570" y1="424" y2="424"/><line style="stroke:#181818;stroke-width:0.5;" x1="503" x2="570" y1="432" y2="432"/></g><!--class Arena--><g id="elem_Arena"><rect fill="#F1F1F1" height="48" id="Arena" rx="2.5" ry="2.5" style="stroke:#181818;stroke-width:0.5;" width="72" x="605.5" y="392"/><ellipse cx="620.5" cy="408" fill="#ADD1B2" rx="11" ry="11" style="stroke:#181818;stroke-width:1.0;"/><path d="M619.9688,414.9219 Q618.2188,414.9219 617.0781,414.1875 Q615.9531,413.4375 615.3906,412.0938 Q614.8438,410.7344 614.8438,408.9375 Q614.8438,406.9063 615.5,405.4531 Q616.1563,404 617.4375,403.2188 Q618.7188,402.4375 620.5938,402.4375 Q621.4844,402.4375 622.1563,402.625 Q622.8281,402.7969 623.5156,403.1406 L622.7031,405.1563 Q622.0781,404.8438 621.5313,404.7188 Q621,404.5938 620.5156,404.5938 Q619.3438,404.5938 618.6406,405.125 Q617.9375,405.6563 617.6406,406.6094 Q617.3438,407.5625 617.3438,408.8281 Q617.3438,410.8438 618.0625,411.8125 Q618.7813,412.7656 620.375,412.7656 Q620.9688,412.7656 621.5938,412.6094 Q622.2188,412.4531 623.0469,412.0781 L623.0469,414.2969 Q622.3125,414.6094 621.5156,414.7656 Q620.7344,414.9219 619.9688,414.9219 Z " fill="#000000"/><text fill="#000000" font-family="sans-serif" font-size="14" lengthAdjust="spacing" textLength="40" x="634.5" y="413.432">Arena</text><line style="stroke:#181818;stroke-width:0.5;" x1="606.5" x2="676.5" y1="424" y2="424"/><line style="stroke:#181818;stroke-width:0.5;" x1="606.5" x2="676.5" y1="432" y2="432"/></g><!--class Paredes--><g id="elem_Paredes"><rect fill="#F1F1F1" height="48" id="Paredes" rx="2.5" ry="2.5" style="stroke:#181818;stroke-width:0.5;" width="86" x="712.5" y="392"/><ellipse cx="727.5" cy="408" fill="#ADD1B2" rx="11" ry="11" style="stroke:#181818;stroke-width:1.0;"/><path d="M726.9688,414.9219 Q725.2188,414.9219 724.0781,414.1875 Q722.9531,413.4375 722.3906,412.0938 Q721.8438,410.7344 721.8438,408.9375 Q721.8438,406.9063 722.5,405.4531 Q723.1563,404 724.4375,403.2188 Q725.7188,402.4375 727.5938,402.4375 Q728.4844,402.4375 729.1563,402.625 Q729.8281,402.7969 730.5156,403.1406 L729.7031,405.1563 Q729.0781,404.8438 728.5313,404.7188 Q728,404.5938 727.5156,404.5938 Q726.3438,404.5938 725.6406,405.125 Q724.9375,405.6563 724.6406,406.6094 Q724.3438,407.5625 724.3438,408.8281 Q724.3438,410.8438 725.0625,411.8125 Q725.7813,412.7656 727.375,412.7656 Q727.9688,412.7656 728.5938,412.6094 Q729.2188,412.4531 730.0469,412.0781 L730.0469,414.2969 Q729.3125,414.6094 728.5156,414.7656 Q727.7344,414.9219 726.9688,414.9219 Z " fill="#000000"/><text fill="#000000" font-family="sans-serif" font-size="14" lengthAdjust="spacing" textLength="54" x="741.5" y="413.432">Paredes</text><line style="stroke:#181818;stroke-width:0.5;" x1="713.5" x2="797.5" y1="424" y2="424"/><line style="stroke:#181818;stroke-width:0.5;" x1="713.5" x2="797.5" y1="432" y2="432"/></g><!--class CespedBajo--><g id="elem_CespedBajo"><rect fill="#F1F1F1" height="48" id="CespedBajo" rx="2.5" ry="2.5" style="stroke:#181818;stroke-width:0.5;" width="111" x="373" y="500"/><ellipse cx="388" cy="516" fill="#ADD1B2" rx="11" ry="11" style="stroke:#181818;stroke-width:1.0;"/><path d="M387.4688,522.9219 Q385.7188,522.9219 384.5781,522.1875 Q383.4531,521.4375 382.8906,520.0938 Q382.3438,518.7344 382.3438,516.9375 Q382.3438,514.9063 383,513.4531 Q383.6563,512 384.9375,511.2188 Q386.2188,510.4375 388.0938,510.4375 Q388.9844,510.4375 389.6563,510.625 Q390.3281,510.7969 391.0156,511.1406 L390.2031,513.1563 Q389.5781,512.8438 389.0313,512.7188 Q388.5,512.5938 388.0156,512.5938 Q386.8438,512.5938 386.1406,513.125 Q385.4375,513.6563 385.1406,514.6094 Q384.8438,515.5625 384.8438,516.8281 Q384.8438,518.8438 385.5625,519.8125 Q386.2813,520.7656 387.875,520.7656 Q388.4688,520.7656 389.0938,520.6094 Q389.7188,520.4531 390.5469,520.0781 L390.5469,522.2969 Q389.8125,522.6094 389.0156,522.7656 Q388.2344,522.9219 387.4688,522.9219 Z " fill="#000000"/><text fill="#000000" font-family="sans-serif" font-size="14" lengthAdjust="spacing" textLength="79" x="402" y="521.432">CespedBajo</text><line style="stroke:#181818;stroke-width:0.5;" x1="374" x2="483" y1="532" y2="532"/><line style="stroke:#181818;stroke-width:0.5;" x1="374" x2="483" y1="540" y2="540"/></g><!--class CespedMedio--><g id="elem_CespedMedio"><rect fill="#F1F1F1" height="48" id="CespedMedio" rx="2.5" ry="2.5" style="stroke:#181818;stroke-width:0.5;" width="124" x="519.5" y="500"/><ellipse cx="534.5" cy="516" fill="#ADD1B2" rx="11" ry="11" style="stroke:#181818;stroke-width:1.0;"/><path d="M533.9688,522.9219 Q532.2188,522.9219 531.0781,522.1875 Q529.9531,521.4375 529.3906,520.0938 Q528.8438,518.7344 528.8438,516.9375 Q528.8438,514.9063 529.5,513.4531 Q530.1563,512 531.4375,511.2188 Q532.7188,510.4375 534.5938,510.4375 Q535.4844,510.4375 536.1563,510.625 Q536.8281,510.7969 537.5156,511.1406 L536.7031,513.1563 Q536.0781,512.8438 535.5313,512.7188 Q535,512.5938 534.5156,512.5938 Q533.3438,512.5938 532.6406,513.125 Q531.9375,513.6563 531.6406,514.6094 Q531.3438,515.5625 531.3438,516.8281 Q531.3438,518.8438 532.0625,519.8125 Q532.7813,520.7656 534.375,520.7656 Q534.9688,520.7656 535.5938,520.6094 Q536.2188,520.4531 537.0469,520.0781 L537.0469,522.2969 Q536.3125,522.6094 535.5156,522.7656 Q534.7344,522.9219 533.9688,522.9219 Z " fill="#000000"/><text fill="#000000" font-family="sans-serif" font-size="14" lengthAdjust="spacing" textLength="92" x="548.5" y="521.432">CespedMedio</text><line style="stroke:#181818;stroke-width:0.5;" x1="520.5" x2="642.5" y1="532" y2="532"/><line style="stroke:#181818;stroke-width:0.5;" x1="520.5" x2="642.5" y1="540" y2="540"/></g><!--class CespedAlto--><g id="elem_CespedAlto"><rect fill="#F1F1F1" height="48" id="CespedAlto" rx="2.5" ry="2.5" style="stroke:#181818;stroke-width:0.5;" width="108" x="678.5" y="500"/><ellipse cx="693.5" cy="516" fill="#ADD1B2" rx="11" ry="11" style="stroke:#181818;stroke-width:1.0;"/><path d="M692.9688,522.9219 Q691.2188,522.9219 690.0781,522.1875 Q688.9531,521.4375 688.3906,520.0938 Q687.8438,518.7344 687.8438,516.9375 Q687.8438,514.9063 688.5,513.4531 Q689.1563,512 690.4375,511.2188 Q691.7188,510.4375 693.5938,510.4375 Q694.4844,510.4375 695.1563,510.625 Q695.8281,510.7969 696.5156,511.1406 L695.7031,513.1563 Q695.0781,512.8438 694.5313,512.7188 Q694,512.5938 693.5156,512.5938 Q692.3438,512.5938 691.6406,513.125 Q690.9375,513.6563 690.6406,514.6094 Q690.3438,515.5625 690.3438,516.8281 Q690.3438,518.8438 691.0625,519.8125 Q691.7813,520.7656 693.375,520.7656 Q693.9688,520.7656 694.5938,520.6094 Q695.2188,520.4531 696.0469,520.0781 L696.0469,522.2969 Q695.3125,522.6094 694.5156,522.7656 Q693.7344,522.9219 692.9688,522.9219 Z " fill="#000000"/><text fill="#000000" font-family="sans-serif" font-size="14" lengthAdjust="spacing" textLength="76" x="707.5" y="521.432">CespedAlto</text><line style="stroke:#181818;stroke-width:0.5;" x1="679.5" x2="785.5" y1="532" y2="532"/><line style="stroke:#181818;stroke-width:0.5;" x1="679.5" x2="785.5" y1="540" y2="540"/></g><!--class AguasNormales--><g id="elem_AguasNormales"><rect fill="#F1F1F1" height="48" id="AguasNormales" rx="2.5" ry="2.5" style="stroke:#181818;stroke-width:0.5;" width="139" x="7" y="500"/><ellipse cx="22" cy="516" fill="#ADD1B2" rx="11" ry="11" style="stroke:#181818;stroke-width:1.0;"/><path d="M21.4688,522.9219 Q19.7188,522.9219 18.5781,522.1875 Q17.4531,521.4375 16.8906,520.0938 Q16.3438,518.7344 16.3438,516.9375 Q16.3438,514.9063 17,513.4531 Q17.6563,512 18.9375,511.2188 Q20.2188,510.4375 22.0938,510.4375 Q22.9844,510.4375 23.6563,510.625 Q24.3281,510.7969 25.0156,511.1406 L24.2031,513.1563 Q23.5781,512.8438 23.0313,512.7188 Q22.5,512.5938 22.0156,512.5938 Q20.8438,512.5938 20.1406,513.125 Q19.4375,513.6563 19.1406,514.6094 Q18.8438,515.5625 18.8438,516.8281 Q18.8438,518.8438 19.5625,519.8125 Q20.2813,520.7656 21.875,520.7656 Q22.4688,520.7656 23.0938,520.6094 Q23.7188,520.4531 24.5469,520.0781 L24.5469,522.2969 Q23.8125,522.6094 23.0156,522.7656 Q22.2344,522.9219 21.4688,522.9219 Z " fill="#000000"/><text fill="#000000" font-family="sans-serif" font-size="14" lengthAdjust="spacing" textLength="107" x="36" y="521.432">AguasNormales</text><line style="stroke:#181818;stroke-width:0.5;" x1="8" x2="145" y1="532" y2="532"/><line style="stroke:#181818;stroke-width:0.5;" x1="8" x2="145" y1="540" y2="540"/></g><!--class AguasTurbulentas--><g id="elem_AguasTurbulentas"><rect fill="#F1F1F1" height="48" id="AguasTurbulentas" rx="2.5" ry="2.5" style="stroke:#181818;stroke-width:0.5;" width="156" x="181.5" y="500"/><ellipse cx="196.5" cy="516" fill="#ADD1B2" rx="11" ry="11" style="stroke:#181818;stroke-width:1.0;"/><path d="M195.9688,522.9219 Q194.2188,522.9219 193.0781,522.1875 Q191.9531,521.4375 191.3906,520.0938 Q190.8438,518.7344 190.8438,516.9375 Q190.8438,514.9063 191.5,513.4531 Q192.1563,512 193.4375,511.2188 Q194.7188,510.4375 196.5938,510.4375 Q197.4844,510.4375 198.1563,510.625 Q198.8281,510.7969 199.5156,511.1406 L198.7031,513.1563 Q198.0781,512.8438 197.5313,512.7188 Q197,512.5938 196.5156,512.5938 Q195.3438,512.5938 194.6406,513.125 Q193.9375,513.6563 193.6406,514.6094 Q193.3438,515.5625 193.3438,516.8281 Q193.3438,518.8438 194.0625,519.8125 Q194.7813,520.7656 196.375,520.7656 Q196.9688,520.7656 197.5938,520.6094 Q198.2188,520.4531 199.0469,520.0781 L199.0469,522.2969 Q198.3125,522.6094 197.5156,522.7656 Q196.7344,522.9219 195.9688,522.9219 Z " fill="#000000"/><text fill="#000000" font-family="sans-serif" font-size="14" lengthAdjust="spacing" textLength="124" x="210.5" y="521.432">AguasTurbulentas</text><line style="stroke:#181818;stroke-width:0.5;" x1="182.5" x2="336.5" y1="532" y2="532"/><line style="stroke:#181818;stroke-width:0.5;" x1="182.5" x2="336.5" y1="540" y2="540"/></g><!--link PyMundoDemo to Mundo--><g id="link_PyMundoDemo_Mundo"><path codeLine="4" d="M450.55,55.26 C440.72,72.94 430.1681,91.8874 420.3381,109.5474 " fill="none" id="PyMundoDemo-to-Mundo" style="stroke:#181818;stroke-width:1.0;"/><polygon fill="#181818" points="417.42,114.79,425.2923,108.8716,419.8518,110.4212,418.3022,104.9807,417.42,114.79" style="stroke:#181818;stroke-width:1.0;"/></g><!--link PyMundoDemo to Console--><g id="link_PyMundoDemo_Console"><path codeLine="5" d="M476.45,55.26 C486.28,72.94 496.8319,91.8874 506.6619,109.5474 " fill="none" id="PyMundoDemo-to-Console" style="stroke:#181818;stroke-width:1.0;stroke-dasharray:7.0,7.0;"/><polygon fill="#181818" points="509.58,114.79,508.6978,104.9807,507.1482,110.4212,501.7077,108.8716,509.58,114.79" style="stroke:#181818;stroke-width:1.0;"/></g><!--link Mundo to Terreno--><g id="link_Mundo_Terreno"><path codeLine="6" d="M409.5459,175.0981 C414.1159,206.9181 419.7163,245.9111 424.2963,277.7711 " fill="none" id="Mundo-Terreno" style="stroke:#181818;stroke-width:1.0;"/><polygon fill="#181818" points="407.84,163.22,404.7336,169.7277,409.5459,175.0981,412.6523,168.5904,407.84,163.22" style="stroke:#181818;stroke-width:1.0;"/><polygon fill="#181818" points="425.15,283.71,427.8287,274.2324,424.4385,278.7609,419.9101,275.3707,425.15,283.71" style="stroke:#181818;stroke-width:1.0;"/></g><!--link Jugador to Mundo--><g id="link_Jugador_Mundo"><path codeLine="7" d="M303.27,139 C325.61,139 329.95,139 352.29,139 " fill="none" id="Jugador-Mundo" style="stroke:#181818;stroke-width:1.0;"/><polygon fill="#181818" points="297.27,139,306.27,143,302.27,139,306.27,135,297.27,139" style="stroke:#181818;stroke-width:1.0;"/><polygon fill="none" points="364.29,139,358.29,135,352.29,139,358.29,143,364.29,139" style="stroke:#181818;stroke-width:1.0;"/></g><!--link Jugador to MedioTransporte--><g id="link_Jugador_MedioTransporte"><path codeLine="8" d="M248.36,163.45 C234.76,215.4 203.7299,333.9057 190.1399,385.8057 " fill="none" id="Jugador-to-MedioTransporte" style="stroke:#181818;stroke-width:1.0;"/><polygon fill="#181818" points="188.62,391.61,194.7693,383.9168,189.8865,386.7731,187.0302,381.8903,188.62,391.61" style="stroke:#181818;stroke-width:1.0;"/></g><!--link Terreno to MedioTransporte--><g id="link_Terreno_MedioTransporte"><path codeLine="9" d="M387.6,326.62 C346.34,344.4 287.91,369.5751 242.39,389.1951 " fill="none" id="Terreno-to-MedioTransporte" style="stroke:#181818;stroke-width:1.0;stroke-dasharray:7.0,7.0;"/><polygon fill="#181818" points="236.88,391.57,246.7282,391.681,241.4716,389.5909,243.5617,384.3343,236.88,391.57" style="stroke:#181818;stroke-width:1.0;"/></g><!--reverse link Terreno to Suelo--><g id="link_Terreno_Suelo"><path codeLine="16" d="M465.0451,344.8697 C483.0551,362.5497 494.86,374.13 512.85,391.79 " fill="none" id="Terreno-backto-Suelo" style="stroke:#181818;stroke-width:1.0;"/><polygon fill="none" points="452.2,332.26,460.8418,349.1514,469.2483,340.588,452.2,332.26" style="stroke:#181818;stroke-width:1.0;"/></g><!--reverse link Terreno to Arena--><g id="link_Terreno_Arena"><path codeLine="17" d="M485.4344,337.3303 C524.6944,356.8703 567.37,378.11 605.08,396.88 " fill="none" id="Terreno-backto-Arena" style="stroke:#181818;stroke-width:1.0;"/><polygon fill="none" points="469.32,329.31,482.761,342.7018,488.1079,331.9588,469.32,329.31" style="stroke:#181818;stroke-width:1.0;"/></g><!--reverse link Terreno to Paredes--><g id="link_Terreno_Paredes"><path codeLine="18" d="M486.7541,325.9002 C539.3941,341.3202 616.16,364.49 695.5,392 C700.88,393.86 706.49,395.9 712.04,397.96 " fill="none" id="Terreno-backto-Paredes" style="stroke:#181818;stroke-width:1.0;"/><polygon fill="none" points="469.48,320.84,485.0674,331.6582,488.4408,320.1421,469.48,320.84" style="stroke:#181818;stroke-width:1.0;"/></g><!--reverse link Terreno to Cesped--><g id="link_Terreno_Cesped"><path codeLine="19" d="M428.5,350.26 C428.5,367.94 428.5,374.13 428.5,391.79 " fill="none" id="Terreno-backto-Cesped" style="stroke:#181818;stroke-width:1.0;"/><polygon fill="none" points="428.5,332.26,422.5,350.26,434.5,350.26,428.5,332.26" style="stroke:#181818;stroke-width:1.0;"/></g><!--reverse link Terreno to Agua--><g id="link_Terreno_Agua"><path codeLine="20" d="M392.7937,345.0493 C375.2837,362.7293 363.98,374.13 346.49,391.79 " fill="none" id="Terreno-backto-Agua" style="stroke:#181818;stroke-width:1.0;"/><polygon fill="none" points="405.46,332.26,388.5306,340.8272,397.0568,349.2714,405.46,332.26" style="stroke:#181818;stroke-width:1.0;"/></g><!--reverse link Cesped to CespedBajo--><g id="link_Cesped_CespedBajo"><path codeLine="22" d="M428.5,458.26 C428.5,475.94 428.5,482.13 428.5,499.79 " fill="none" id="Cesped-backto-CespedBajo" style="stroke:#181818;stroke-width:1.0;"/><polygon fill="none" points="428.5,440.26,422.5,458.26,434.5,458.26,428.5,440.26" style="stroke:#181818;stroke-width:1.0;"/></g><!--reverse link Cesped to CespedMedio--><g id="link_Cesped_CespedMedio"><path codeLine="23" d="M476.8763,450.5103 C502.2963,468.1203 522.27,481.97 547.74,499.61 " fill="none" id="Cesped-backto-CespedMedio" style="stroke:#181818;stroke-width:1.0;"/><polygon fill="none" points="462.08,440.26,473.4595,455.4424,480.2931,445.5782,462.08,440.26" style="stroke:#181818;stroke-width:1.0;"/></g><!--reverse link Cesped to CespedAlto--><g id="link_Cesped_CespedAlto"><path codeLine="24" d="M483.6367,439.8798 C489.4967,442.2298 478.79,437.87 484.5,440 C520.4,453.36 616.73,485.17 678.23,505.31 " fill="none" id="Cesped-backto-CespedAlto" style="stroke:#181818;stroke-width:1.0;"/><polygon fill="none" points="466.93,433.18,481.4034,445.4487,485.8699,434.3109,466.93,433.18" style="stroke:#181818;stroke-width:1.0;"/></g><!--reverse link Agua to AguasNormales--><g id="link_Agua_AguasNormales"><path codeLine="26" d="M274.8414,439.9848 C269.3014,442.5548 279.91,437.6 274.5,440 C227.49,460.88 173.63,483.36 133.96,499.66 " fill="none" id="Agua-backto-AguasNormales" style="stroke:#181818;stroke-width:1.0;"/><polygon fill="none" points="291.17,432.41,272.3165,434.5419,277.3664,445.4277,291.17,432.41" style="stroke:#181818;stroke-width:1.0;"/></g><!--reverse link Agua to AguasTurbulentas--><g id="link_Agua_AguasTurbulentas"><path codeLine="27" d="M300.1494,455.671 C289.4794,473.351 284.18,482.13 273.51,499.79 " fill="none" id="Agua-backto-AguasTurbulentas" style="stroke:#181818;stroke-width:1.0;"/><polygon fill="none" points="309.45,440.26,295.0124,452.5708,305.2864,458.7712,309.45,440.26" style="stroke:#181818;stroke-width:1.0;"/></g><!--SRC=[RO_12i8m38RlVOgUXUuH1dEUXCd0lK1cmr2wPgJjGV3XdLtTMFNIqEzF_ln16qRPeBvJns3THEnHYFRP1AlfX2D9fLKfurVkUA6BKjPa7HaKYtvGiRb3PhIK82apitCOG1EBLANYZ-j-hnHfKXP5-HjAGEyymysl2rPGevjGR_zg2234DQ2PymVrsZ9LymiPQu5HeyleufcFpyOPIer7U7ntfJHBYMVy4ohZCnxTtOLu1BF6YQT4eGlS1uFMmqvx0m00]--></g></svg>